<?xml version="1.0" encoding="utf-8"?>
<!-- Generator: Adobe Illustrator 19.0.0, SVG Export Plug-In . SVG Version: 6.00 Build 0)  -->
<svg version="1.1" id="Layer_1" xmlns="http://www.w3.org/2000/svg" xmlns:xlink="http://www.w3.org/1999/xlink" x="0px" y="0px"
	 viewBox="-346 242 266 78" style="enable-background:new -346 242 266 78;" xml:space="preserve">
<style type="text/css">
	.st0{fill:#617D98;}
</style>
<g id="XMLID_1_">
	<path class="st0" d="M-325.6,285.9v-8.3c1.9,0,2.8-0.7,2.8-2.2c0-1.3-0.7-2-2.2-2s-2.2,0.9-2.2,2.7v20.6h-9.4v-19.6
		c0-2,0.2-3.7,0.6-5s1.1-2.5,2.1-3.6c1.1-1.2,2.5-2.2,4.1-3c1.7-0.7,3.4-1.1,5.1-1.1c3.2,0,5.9,1.1,8.1,3.2c2.2,2.2,3.3,4.8,3.3,8
		c0,3.1-1,5.6-2.9,7.5c-1.8,1.8-4.5,2.7-8.1,2.7L-325.6,285.9z"/>
	<path class="st0" d="M-309.9,265.3h9.4V284c0,1.5,0.2,2.4,0.7,2.9s1.4,0.7,2.8,0.7h0.5v9.1h-2.5c-3.4,0-6.1-1-8-3s-2.9-4.8-2.9-8.3
		V265.3z"/>
	<path class="st0" d="M-282.1,281v8.3h-2.7v7.5h-9.4v-20c0-3.9,1.1-6.9,3.2-9s5.1-3.2,8.9-3.2c3.7,0,6.4,1,8.2,2.9
		c1.8,1.9,2.7,4.9,2.7,9v20.3h-9.4v-19.7c0-1.2-0.1-2.1-0.4-2.6s-0.8-0.7-1.6-0.7c-1.5,0-2.2,1.1-2.2,3.3v3.9L-282.1,281L-282.1,281
		z"/>
	<path class="st0" d="M-243.4,265.3l-8.9,14v17.5h-9.4v-17.5l-9-14h9.5l4.1,6.5l4.4-6.5H-243.4z"/>
	<path class="st0" d="M-216.3,274.3v22.4h-9.4v-22.4h-7.2v-9h23.7v9H-216.3z"/>
	<path class="st0" d="M-193.7,276.5v8.3h-2.6v11.9h-9.4v-31.5h9.4v11.2h2.6V276.5z M-182.8,265.3v31.5h-9.4v-31.5H-182.8z"/>
	<path class="st0" d="M-167.1,265.3v31.5h-9.4v-31.5H-167.1z"/>
	<path class="st0" d="M-161.5,296.8v-20.4c0-3.6,1.1-6.4,3.2-8.6c2.1-2.2,5-3.2,8.6-3.2s6.3,1,8.1,3.1c1.9,2.1,2.8,5.1,2.8,9v20.1
		h-9.4v-20.1c0-1.9-0.7-2.9-2.1-2.9c-1.3,0-2,1-2,2.9v20.1H-161.5z"/>
	<path class="st0" d="M-119.7,279.1h8.9c1.9,2.4,2.9,4.9,2.9,7.5c0,3.1-1.1,5.7-3.4,7.7c-2.3,2.1-5,3.1-8.3,3.1
		c-4.3,0-7.9-1.6-10.9-4.9c-3-3.2-4.5-7.2-4.5-11.8c0-4.7,1.5-8.6,4.6-11.7c3-3.1,6.8-4.7,11.4-4.7c1.6,0,3.3,0.3,5.2,0.9v9.4
		c-1.5-0.7-2.8-1-4-1c-2.2,0-4,0.7-5.4,2.1s-2.1,3.1-2.1,5.3c0,2.2,0.6,4,1.9,5.3s3,2,5.2,2c1.4,0,2.1-0.4,2.1-1.2
		c0-0.6-0.5-0.9-1.4-0.9h-2.2V279.1z"/>
	<path class="st0" d="M-89.3,265.1v9c-0.7-0.2-1.2-0.3-1.6-0.3c-0.7,0-1.3,0.3-1.8,0.8s-0.8,1.2-0.8,1.9c0,0.6,0.3,1.4,0.8,2.4
		l0.7,1.2c1.3,2.2,1.9,4.4,1.9,6.5c0,3.1-1.1,5.6-3.3,7.8c-2.2,2.1-4.8,3.2-8,3.2c-1.5,0-3-0.3-4.5-1v-9.2c0.9,0.6,1.7,0.9,2.4,0.9
		c0.8,0,1.5-0.2,2-0.7s0.8-1.1,0.8-1.8c0-0.5-0.4-1.5-1.3-3c-1.4-2.5-2.1-4.9-2.1-7.4c0-3,1.1-5.5,3.2-7.7c2.1-2.1,4.6-3.2,7.6-3.2
		C-91.8,264.5-90.6,264.8-89.3,265.1z"/>
</g>
</svg>
